<svg
  width="608"
  height="157"
  viewBox="0 0 608 157"
  fill="none"
  xmlns="http://www.w3.org/2000/svg"
>
<path
    d="M27.792 27.6C32.256 27.6 36.12 28.344 39.384 29.832C42.696 31.32 45.24 33.432 47.016 36.168C48.792 38.904 49.68 42.144 49.68 45.888C49.68 49.584 48.792 52.824 47.016 55.608C45.24 58.344 42.696 60.456 39.384 61.944C36.12 63.384 32.256 64.104 27.792 64.104H17.64V78H5.976V27.6H27.792ZM27.144 54.6C30.648 54.6 33.312 53.856 35.136 52.368C36.96 50.832 37.872 48.672 37.872 45.888C37.872 43.056 36.96 40.896 35.136 39.408C33.312 37.872 30.648 37.104 27.144 37.104H17.64V54.6H27.144ZM67.9433 44.376C69.2873 42.504 71.0873 41.088 73.3433 40.128C75.6473 39.168 78.2873 38.688 81.2633 38.688V49.056C80.0153 48.96 79.1753 48.912 78.7433 48.912C75.5273 48.912 73.0073 49.824 71.1833 51.648C69.3593 53.424 68.4473 56.112 68.4473 59.712V78H57.2153V39.264H67.9433V44.376ZM87.9418 39.264H99.1738V78H87.9418V39.264ZM93.5578 33.864C91.4938 33.864 89.8138 33.264 88.5178 32.064C87.2218 30.864 86.5738 29.376 86.5738 27.6C86.5738 25.824 87.2218 24.336 88.5178 23.136C89.8138 21.936 91.4938 21.336 93.5578 21.336C95.6218 21.336 97.3018 21.912 98.5978 23.064C99.8938 24.216 100.542 25.656 100.542 27.384C100.542 29.256 99.8938 30.816 98.5978 32.064C97.3018 33.264 95.6218 33.864 93.5578 33.864ZM159.206 38.688C164.054 38.688 167.894 40.128 170.726 43.008C173.606 45.84 175.046 50.112 175.046 55.824V78H163.814V57.552C163.814 54.48 163.166 52.2 161.87 50.712C160.622 49.176 158.822 48.408 156.47 48.408C153.83 48.408 151.742 49.272 150.206 51C148.67 52.68 147.902 55.2 147.902 58.56V78H136.67V57.552C136.67 51.456 134.222 48.408 129.326 48.408C126.734 48.408 124.67 49.272 123.134 51C121.598 52.68 120.83 55.2 120.83 58.56V78H109.598V39.264H120.326V43.728C121.766 42.096 123.518 40.848 125.582 39.984C127.694 39.12 129.998 38.688 132.494 38.688C135.23 38.688 137.702 39.24 139.91 40.344C142.118 41.4 143.894 42.96 145.238 45.024C146.822 43.008 148.814 41.448 151.214 40.344C153.662 39.24 156.326 38.688 159.206 38.688ZM222.914 51.792C225.794 52.704 228.05 54.24 229.682 56.4C231.314 58.512 232.13 61.128 232.13 64.248C232.13 68.664 230.402 72.072 226.946 74.472C223.538 76.824 218.546 78 211.97 78H185.906V27.6H210.53C216.674 27.6 221.378 28.776 224.642 31.128C227.954 33.48 229.61 36.672 229.61 40.704C229.61 43.152 229.01 45.336 227.81 47.256C226.658 49.176 225.026 50.688 222.914 51.792ZM197.498 36.384V48.264H209.09C211.97 48.264 214.154 47.76 215.642 46.752C217.13 45.744 217.874 44.256 217.874 42.288C217.874 40.32 217.13 38.856 215.642 37.896C214.154 36.888 211.97 36.384 209.09 36.384H197.498ZM211.106 69.216C214.178 69.216 216.482 68.712 218.018 67.704C219.602 66.696 220.394 65.136 220.394 63.024C220.394 58.848 217.298 56.76 211.106 56.76H197.498V69.216H211.106ZM255.792 38.688C261.792 38.688 266.4 40.128 269.616 43.008C272.832 45.84 274.44 50.136 274.44 55.896V78H263.928V73.176C261.816 76.776 257.88 78.576 252.12 78.576C249.144 78.576 246.552 78.072 244.344 77.064C242.184 76.056 240.528 74.664 239.376 72.888C238.224 71.112 237.648 69.096 237.648 66.84C237.648 63.24 238.992 60.408 241.68 58.344C244.416 56.28 248.616 55.248 254.28 55.248H263.208C263.208 52.8 262.464 50.928 260.976 49.632C259.488 48.288 257.256 47.616 254.28 47.616C252.216 47.616 250.176 47.952 248.16 48.624C246.192 49.248 244.512 50.112 243.12 51.216L239.088 43.368C241.2 41.88 243.72 40.728 246.648 39.912C249.624 39.096 252.672 38.688 255.792 38.688ZM254.928 71.016C256.848 71.016 258.552 70.584 260.04 69.72C261.528 68.808 262.584 67.488 263.208 65.76V61.8H255.504C250.896 61.8 248.592 63.312 248.592 66.336C248.592 67.776 249.144 68.928 250.248 69.792C251.4 70.608 252.96 71.016 254.928 71.016ZM308.15 38.688C312.95 38.688 316.814 40.128 319.742 43.008C322.718 45.888 324.206 50.16 324.206 55.824V78H312.974V57.552C312.974 54.48 312.302 52.2 310.958 50.712C309.614 49.176 307.67 48.408 305.126 48.408C302.294 48.408 300.038 49.296 298.358 51.072C296.678 52.8 295.838 55.392 295.838 58.848V78H284.606V39.264H295.334V43.8C296.822 42.168 298.67 40.92 300.878 40.056C303.086 39.144 305.51 38.688 308.15 38.688ZM351.019 62.808L345.619 68.136V78H334.387V24.576H345.619V54.816L362.035 39.264H375.427L359.299 55.68L376.867 78H363.259L351.019 62.808Z"
    fill="url(#paint0_linear_41_318)"
  />
<path
    d="M39.384 29.832L38.9692 30.7419L38.9742 30.7442L39.384 29.832ZM47.016 55.608L47.8548 56.1525L47.8591 56.1458L47.016 55.608ZM39.384 61.944L39.7877 62.8589L39.7938 62.8562L39.384 61.944ZM17.64 64.104V63.104H16.64V64.104H17.64ZM17.64 78V79H18.64V78H17.64ZM5.976 78H4.976V79H5.976V78ZM5.976 27.6V26.6H4.976V27.6H5.976ZM35.136 52.368L35.7681 53.1429L35.7742 53.1379L35.7801 53.1329L35.136 52.368ZM35.136 39.408L34.4919 40.1729L34.4978 40.1779L34.5039 40.1829L35.136 39.408ZM17.64 37.104V36.104H16.64V37.104H17.64ZM17.64 54.6H16.64V55.6H17.64V54.6ZM27.792 28.6C32.1469 28.6 35.8632 29.3259 38.9692 30.7419L39.7988 28.9221C36.3768 27.3621 32.3651 26.6 27.792 26.6V28.6ZM38.9742 30.7442C42.1314 32.1626 44.5175 34.1556 46.1772 36.7125L47.8548 35.6235C45.9625 32.7084 43.2607 30.4774 39.7938 28.9198L38.9742 30.7442ZM46.1772 36.7125C47.8331 39.2634 48.68 42.3079 48.68 45.888H50.68C50.68 41.98 49.7509 38.5446 47.8548 35.6235L46.1772 36.7125ZM48.68 45.888C48.68 49.4169 47.8345 52.4655 46.1729 55.0702L47.8591 56.1458C49.7495 53.1825 50.68 49.7511 50.68 45.888H48.68ZM46.1772 55.0635C44.5175 57.6204 42.1314 59.6134 38.9742 61.0318L39.7938 62.8562C43.2607 61.2986 45.9625 59.0676 47.8548 56.1525L46.1772 55.0635ZM38.9804 61.0291C35.8712 62.4008 32.1508 63.104 27.792 63.104V65.104C32.3612 65.104 36.3688 64.3672 39.7876 62.8589L38.9804 61.0291ZM27.792 63.104H17.64V65.104H27.792V63.104ZM16.64 64.104V78H18.64V64.104H16.64ZM17.64 77H5.976V79H17.64V77ZM6.976 78V27.6H4.976V78H6.976ZM5.976 28.6H27.792V26.6H5.976V28.6ZM27.144 55.6C30.7699 55.6 33.6966 54.8328 35.7681 53.1429L34.5039 51.5931C32.9274 52.8792 30.5261 53.6 27.144 53.6V55.6ZM35.7801 53.1329C37.8686 51.3742 38.872 48.9121 38.872 45.888H36.872C36.872 48.4319 36.0514 50.2898 34.4919 51.6031L35.7801 53.1329ZM38.872 45.888C38.872 42.8231 37.8726 40.35 35.7681 38.6331L34.5039 40.1829C36.0474 41.442 36.872 43.2889 36.872 45.888H38.872ZM35.7801 38.6431C33.7078 36.898 30.7761 36.104 27.144 36.104V38.104C30.5199 38.104 32.9162 38.846 34.4919 40.1729L35.7801 38.6431ZM27.144 36.104H17.64V38.104H27.144V36.104ZM16.64 37.104V54.6H18.64V37.104H16.64ZM17.64 55.6H27.144V53.6H17.64V55.6ZM67.9433 44.376H66.9433V47.4835L68.7556 44.9592L67.9433 44.376ZM73.3433 40.128L72.9586 39.2049L72.9517 39.2078L73.3433 40.128ZM81.2633 38.688H82.2633V37.688H81.2633V38.688ZM81.2633 49.056L81.1866 50.0531L82.2633 50.1359V49.056H81.2633ZM71.1833 51.648L71.8809 52.3645L71.8904 52.3551L71.1833 51.648ZM68.4473 78V79H69.4473V78H68.4473ZM57.2153 78H56.2153V79H57.2153V78ZM57.2153 39.264V38.264H56.2153V39.264H57.2153ZM67.9433 39.264H68.9433V38.264H67.9433V39.264ZM68.7556 44.9592C69.9859 43.2455 71.6361 41.9412 73.7348 41.0482L72.9517 39.2078C70.5385 40.2348 68.5886 41.7625 67.1309 43.7928L68.7556 44.9592ZM73.7279 41.0511C75.8889 40.1506 78.3944 39.688 81.2633 39.688V37.688C78.1801 37.688 75.4056 38.1854 72.9586 39.2049L73.7279 41.0511ZM80.2633 38.688V49.056H82.2633V38.688H80.2633ZM81.3399 48.0589C80.0974 47.9634 79.2197 47.912 78.7433 47.912V49.912C79.1308 49.912 79.9332 49.9566 81.1866 50.0531L81.3399 48.0589ZM78.7433 47.912C75.3312 47.912 72.5315 48.8855 70.4761 50.9409L71.8904 52.3551C73.483 50.7625 75.7233 49.912 78.7433 49.912V47.912ZM70.4856 50.9315C68.3998 52.9624 67.4473 55.9556 67.4473 59.712H69.4473C69.4473 56.2684 70.3187 53.8856 71.8809 52.3645L70.4856 50.9315ZM67.4473 59.712V78H69.4473V59.712H67.4473ZM68.4473 77H57.2153V79H68.4473V77ZM58.2153 78V39.264H56.2153V78H58.2153ZM57.2153 40.264H67.9433V38.264H57.2153V40.264ZM66.9433 39.264V44.376H68.9433V39.264H66.9433ZM87.9418 39.264V38.264H86.9418V39.264H87.9418ZM99.1738 39.264H100.174V38.264H99.1738V39.264ZM99.1738 78V79H100.174V78H99.1738ZM87.9418 78H86.9418V79H87.9418V78ZM88.5178 32.064L87.8384 32.7978L87.8384 32.7978L88.5178 32.064ZM88.5178 23.136L89.1972 23.8698L89.1972 23.8698L88.5178 23.136ZM98.5978 23.064L97.9334 23.8114L97.9334 23.8114L98.5978 23.064ZM98.5978 32.064L99.2772 32.7978L99.2844 32.7911L99.2915 32.7843L98.5978 32.064ZM87.9418 40.264H99.1738V38.264H87.9418V40.264ZM98.1738 39.264V78H100.174V39.264H98.1738ZM99.1738 77H87.9418V79H99.1738V77ZM88.9418 78V39.264H86.9418V78H88.9418ZM93.5578 32.864C91.7004 32.864 90.2776 32.3306 89.1972 31.3302L87.8384 32.7978C89.35 34.1974 91.2872 34.864 93.5578 34.864V32.864ZM89.1972 31.3302C88.1069 30.3207 87.5738 29.0992 87.5738 27.6H85.5738C85.5738 29.6528 86.3367 31.4073 87.8384 32.7978L89.1972 31.3302ZM87.5738 27.6C87.5738 26.1008 88.1069 24.8793 89.1972 23.8698L87.8384 22.4022C86.3367 23.7927 85.5738 25.5472 85.5738 27.6H87.5738ZM89.1972 23.8698C90.2776 22.8694 91.7004 22.336 93.5578 22.336V20.336C91.2872 20.336 89.35 21.0026 87.8384 22.4022L89.1972 23.8698ZM93.5578 22.336C95.426 22.336 96.8542 22.852 97.9334 23.8114L99.2622 22.3166C97.7495 20.9719 95.8176 20.336 93.5578 20.336V22.336ZM97.9334 23.8114C99.0168 24.7744 99.5418 25.9428 99.5418 27.384H101.542C101.542 25.3692 100.771 23.6576 99.2622 22.3166L97.9334 23.8114ZM99.5418 27.384C99.5418 28.9966 98.9957 30.2926 97.9042 31.3437L99.2915 32.7843C100.792 31.3394 101.542 29.5154 101.542 27.384H99.5418ZM97.9184 31.3302C96.838 32.3306 95.4152 32.864 93.5578 32.864V34.864C95.8284 34.864 97.7656 34.1974 99.2772 32.7978L97.9184 31.3302ZM170.726 43.008L170.013 43.7091L170.019 43.7151L170.025 43.721L170.726 43.008ZM175.046 78V79H176.046V78H175.046ZM163.814 78H162.814V79H163.814V78ZM161.87 50.712L161.094 51.3426L161.105 51.3559L161.116 51.3688L161.87 50.712ZM150.206 51L150.944 51.6748L150.953 51.6644L150.206 51ZM147.902 78V79H148.902V78H147.902ZM136.67 78H135.67V79H136.67V78ZM123.134 51L123.872 51.6748L123.881 51.6644L123.134 51ZM120.83 78V79H121.83V78H120.83ZM109.598 78H108.598V79H109.598V78ZM109.598 39.264V38.264H108.598V39.264H109.598ZM120.326 39.264H121.326V38.264H120.326V39.264ZM120.326 43.728H119.326V46.3728L121.076 44.3896L120.326 43.728ZM125.582 39.984L125.203 39.0584L125.196 39.0616L125.582 39.984ZM139.91 40.344L139.463 41.2384L139.471 41.2423L139.479 41.2461L139.91 40.344ZM145.238 45.024L144.4 45.5697L145.162 46.7396L146.024 45.6418L145.238 45.024ZM151.214 40.344L150.803 39.4324L150.796 39.4355L151.214 40.344ZM159.206 39.688C163.844 39.688 167.406 41.0578 170.013 43.7091L171.439 42.3069C168.382 39.1982 164.265 37.688 159.206 37.688V39.688ZM170.025 43.721C172.646 46.2986 174.046 50.2676 174.046 55.824H176.046C176.046 49.9564 174.566 45.3814 171.427 42.295L170.025 43.721ZM174.046 55.824V78H176.046V55.824H174.046ZM175.046 77H163.814V79H175.046V77ZM164.814 78V57.552H162.814V78H164.814ZM164.814 57.552C164.814 54.3669 164.146 51.803 162.624 50.0552L161.116 51.3688C162.186 52.5969 162.814 54.5931 162.814 57.552H164.814ZM162.646 50.0814C161.172 48.2668 159.06 47.408 156.47 47.408V49.408C158.584 49.408 160.072 50.0852 161.094 51.3426L162.646 50.0814ZM156.47 47.408C153.589 47.408 151.212 48.3627 149.459 50.3356L150.953 51.6644C152.272 50.1813 154.071 49.408 156.47 49.408V47.408ZM149.468 50.3252C147.699 52.2606 146.902 55.0669 146.902 58.56H148.902C148.902 55.3331 149.642 53.0994 150.944 51.6748L149.468 50.3252ZM146.902 58.56V78H148.902V58.56H146.902ZM147.902 77H136.67V79H147.902V77ZM137.67 78V57.552H135.67V78H137.67ZM137.67 57.552C137.67 54.3965 137.041 51.8446 135.614 50.0678C134.153 48.2491 131.993 47.408 129.326 47.408V49.408C131.555 49.408 133.067 50.0909 134.054 51.3202C135.075 52.5914 135.67 54.6115 135.67 57.552H137.67ZM129.326 47.408C126.487 47.408 124.137 48.3669 122.387 50.3356L123.881 51.6644C125.204 50.1771 126.981 49.408 129.326 49.408V47.408ZM122.396 50.3252C120.627 52.2606 119.83 55.0669 119.83 58.56H121.83C121.83 55.3331 122.57 53.0994 123.872 51.6748L122.396 50.3252ZM119.83 58.56V78H121.83V58.56H119.83ZM120.83 77H109.598V79H120.83V77ZM110.598 78V39.264H108.598V78H110.598ZM109.598 40.264H120.326V38.264H109.598V40.264ZM119.326 39.264V43.728H121.326V39.264H119.326ZM121.076 44.3896C122.413 42.8742 124.04 41.7138 125.968 40.9064L125.196 39.0616C122.997 39.9822 121.119 41.3178 119.576 43.0664L121.076 44.3896ZM125.961 40.9095C127.942 40.0991 130.116 39.688 132.494 39.688V37.688C129.88 37.688 127.446 38.1409 125.203 39.0585L125.961 40.9095ZM132.494 39.688C135.092 39.688 137.408 40.2111 139.463 41.2384L140.357 39.4496C137.996 38.2689 135.368 37.688 132.494 37.688V39.688ZM139.479 41.2461C141.52 42.2224 143.156 43.6585 144.4 45.5697L146.076 44.4783C144.633 42.2615 142.716 40.5776 140.342 39.4419L139.479 41.2461ZM146.024 45.6418C147.507 43.7544 149.372 42.2923 151.632 41.2525L150.796 39.4355C148.257 40.6037 146.137 42.2616 144.452 44.4062L146.024 45.6418ZM151.625 41.2556C153.935 40.214 156.457 39.688 159.206 39.688V37.688C156.195 37.688 153.389 38.266 150.803 39.4324L151.625 41.2556ZM222.914 51.792L222.45 50.9058L220.32 52.0195L222.612 52.7453L222.914 51.792ZM229.682 56.4L228.884 57.0029L228.89 57.0114L229.682 56.4ZM226.946 74.472L227.514 75.295L227.516 75.2934L226.946 74.472ZM185.906 78H184.906V79H185.906V78ZM185.906 27.6V26.6H184.906V27.6H185.906ZM224.642 31.128L224.057 31.9393L224.063 31.9433L224.642 31.128ZM227.81 47.256L226.962 46.726L226.957 46.7337L226.952 46.7415L227.81 47.256ZM197.498 36.384V35.384H196.498V36.384H197.498ZM197.498 48.264H196.498V49.264H197.498V48.264ZM215.642 37.896L215.081 38.7239L215.09 38.7302L215.1 38.7363L215.642 37.896ZM218.018 67.704L217.481 66.8603L217.469 66.868L218.018 67.704ZM197.498 56.76V55.76H196.498V56.76H197.498ZM197.498 69.216H196.498V70.216H197.498V69.216ZM222.612 52.7453C225.318 53.6023 227.391 55.0272 228.884 57.0028L230.48 55.7972C228.708 53.4528 226.269 51.8057 223.216 50.8387L222.612 52.7453ZM228.89 57.0114C230.365 58.9199 231.13 61.3104 231.13 64.248H233.13C233.13 60.9456 232.262 58.1041 230.473 55.7886L228.89 57.0114ZM231.13 64.248C231.13 68.3556 229.547 71.4482 226.375 73.6506L227.516 75.2934C231.257 72.6958 233.13 68.9724 233.13 64.248H231.13ZM226.378 73.649C223.209 75.8361 218.453 77 211.97 77V79C218.639 79 223.867 77.8119 227.514 75.295L226.378 73.649ZM211.97 77H185.906V79H211.97V77ZM186.906 78V27.6H184.906V78H186.906ZM185.906 28.6H210.53V26.6H185.906V28.6ZM210.53 28.6C216.568 28.6 221.032 29.7593 224.057 31.9393L225.226 30.3167C221.724 27.7927 216.78 26.6 210.53 26.6V28.6ZM224.063 31.9433C227.113 34.1094 228.61 36.9988 228.61 40.704H230.61C230.61 36.3452 228.794 32.8505 225.221 30.3127L224.063 31.9433ZM228.61 40.704C228.61 42.9804 228.054 44.9778 226.962 46.726L228.658 47.786C229.965 45.6942 230.61 43.3236 230.61 40.704H228.61ZM226.952 46.7415C225.901 48.4934 224.41 49.8813 222.45 50.9058L223.377 52.6782C225.641 51.4947 227.414 49.8586 228.667 47.7705L226.952 46.7415ZM196.498 36.384V48.264H198.498V36.384H196.498ZM197.498 49.264H209.09V47.264H197.498V49.264ZM209.09 49.264C212.059 49.264 214.477 48.7491 216.203 47.5799L215.081 45.9241C213.831 46.7709 211.88 47.264 209.09 47.264V49.264ZM216.203 47.5799C217.995 46.366 218.874 44.5506 218.874 42.288H216.874C216.874 43.9614 216.265 45.122 215.081 45.9241L216.203 47.5799ZM218.874 42.288C218.874 40.0251 217.993 38.2229 216.184 37.0557L215.1 38.7363C216.266 39.4891 216.874 40.6149 216.874 42.288H218.874ZM216.203 37.0681C214.477 35.8989 212.059 35.384 209.09 35.384V37.384C211.88 37.384 213.831 37.8771 215.081 38.7239L216.203 37.0681ZM209.09 35.384H197.498V37.384H209.09V35.384ZM211.106 70.216C214.255 70.216 216.791 69.7051 218.566 68.54L217.469 66.868C216.172 67.7189 214.1 68.216 211.106 68.216V70.216ZM218.555 68.5477C220.467 67.3305 221.394 65.4274 221.394 63.024H219.394C219.394 64.8446 218.736 66.0615 217.481 66.8603L218.555 68.5477ZM221.394 63.024C221.394 60.6496 220.491 58.7512 218.631 57.4969C216.841 56.29 214.283 55.76 211.106 55.76V57.76C214.121 57.76 216.206 58.274 217.513 59.1551C218.749 59.9888 219.394 61.2224 219.394 63.024H221.394ZM211.106 55.76H197.498V57.76H211.106V55.76ZM196.498 56.76V69.216H198.498V56.76H196.498ZM197.498 70.216H211.106V68.216H197.498V70.216ZM269.616 43.008L268.949 43.753L268.955 43.7585L269.616 43.008ZM274.44 78V79H275.44V78H274.44ZM263.928 78H262.928V79H263.928V78ZM263.928 73.176H264.928V69.4952L263.066 72.67L263.928 73.176ZM244.344 77.064L243.921 77.9702L243.929 77.9737L244.344 77.064ZM239.376 72.888L240.215 72.3438L240.215 72.3438L239.376 72.888ZM241.68 58.344L241.078 57.5457L241.071 57.5508L241.68 58.344ZM263.208 55.248V56.248H264.208V55.248H263.208ZM260.976 49.632L260.306 50.3741L260.313 50.3802L260.32 50.3861L260.976 49.632ZM248.16 48.624L248.463 49.5772L248.47 49.575L248.477 49.5727L248.16 48.624ZM243.12 51.216L242.231 51.673L242.787 52.7563L243.742 51.9995L243.12 51.216ZM239.088 43.368L238.512 42.5505L237.801 43.0514L238.199 43.825L239.088 43.368ZM246.648 39.912L246.384 38.9476L246.38 38.9487L246.648 39.912ZM260.04 69.72L260.543 70.5848L260.553 70.5788L260.563 70.5726L260.04 69.72ZM263.208 65.76L264.149 66.0996L264.208 65.935V65.76H263.208ZM263.208 61.8H264.208V60.8H263.208V61.8ZM250.248 69.792L249.632 70.5795L249.651 70.5942L249.67 70.608L250.248 69.792ZM255.792 39.688C261.642 39.688 265.977 41.0916 268.949 43.7529L270.283 42.263C266.823 39.1644 261.942 37.688 255.792 37.688V39.688ZM268.955 43.7585C271.889 46.3413 273.44 50.3193 273.44 55.896H275.44C275.44 49.9527 273.776 45.3387 270.277 42.2575L268.955 43.7585ZM273.44 55.896V78H275.44V55.896H273.44ZM274.44 77H263.928V79H274.44V77ZM264.928 78V73.176H262.928V78H264.928ZM263.066 72.67C261.199 75.8529 257.677 77.576 252.12 77.576V79.576C258.084 79.576 262.434 77.6991 264.791 73.682L263.066 72.67ZM252.12 77.576C249.256 77.576 246.811 77.0909 244.76 76.1543L243.929 77.9737C246.293 79.0531 249.033 79.576 252.12 79.576V77.576ZM244.767 76.1578C242.755 75.2188 241.253 73.9433 240.215 72.3438L238.537 73.4322C239.804 75.3847 241.614 76.8932 243.921 77.9702L244.767 76.1578ZM240.215 72.3438C239.175 70.7407 238.648 68.9162 238.648 66.84H236.648C236.648 69.2758 237.273 71.4833 238.537 73.4322L240.215 72.3438ZM238.648 66.84C238.648 63.5283 239.865 60.9986 242.289 59.1372L241.071 57.5508C238.12 59.8174 236.648 62.9517 236.648 66.84H238.648ZM242.283 59.1423C244.764 57.2702 248.704 56.248 254.28 56.248V54.248C248.529 54.248 244.068 55.2898 241.078 57.5457L242.283 59.1423ZM254.28 56.248H263.208V54.248H254.28V56.248ZM264.208 55.248C264.208 52.5862 263.39 50.4083 261.633 48.8779L260.32 50.3861C261.539 51.4477 262.208 53.0138 262.208 55.248H264.208ZM261.647 48.8899C259.903 47.3153 257.387 46.616 254.28 46.616V48.616C257.126 48.616 259.073 49.2607 260.306 50.3741L261.647 48.8899ZM254.28 46.616C252.106 46.616 249.959 46.9703 247.844 47.6753L248.477 49.5727C250.394 48.9337 252.327 48.616 254.28 48.616V46.616ZM247.858 47.6708C245.793 48.3256 244 49.2418 242.499 50.4325L243.742 51.9995C245.025 50.9822 246.592 50.1704 248.463 49.5772L247.858 47.6708ZM244.01 50.759L239.978 42.911L238.199 43.825L242.231 51.673L244.01 50.759ZM239.664 44.1855C241.668 42.7738 244.08 41.6659 246.917 40.8753L246.38 38.9487C243.361 39.7901 240.733 40.9862 238.512 42.5505L239.664 44.1855ZM246.913 40.8764C249.802 40.0843 252.761 39.688 255.792 39.688V37.688C252.584 37.688 249.447 38.1077 246.384 38.9476L246.913 40.8764ZM254.928 72.016C257.004 72.016 258.885 71.5473 260.543 70.5848L259.538 68.8552C258.22 69.6207 256.693 70.016 254.928 70.016V72.016ZM260.563 70.5726C262.255 69.5354 263.452 68.029 264.149 66.0996L262.268 65.4204C261.717 66.947 260.802 68.0806 259.518 68.8674L260.563 70.5726ZM264.208 65.76V61.8H262.208V65.76H264.208ZM263.208 60.8H255.504V62.8H263.208V60.8ZM255.504 60.8C253.123 60.8 251.163 61.1849 249.772 62.098C248.307 63.0591 247.592 64.5259 247.592 66.336H249.592C249.592 65.1221 250.03 64.3209 250.869 63.77C251.782 63.1711 253.278 62.8 255.504 62.8V60.8ZM247.592 66.336C247.592 68.0738 248.278 69.52 249.632 70.5795L250.865 69.0045C250.01 68.336 249.592 67.4782 249.592 66.336H247.592ZM249.67 70.608C251.046 71.5825 252.833 72.016 254.928 72.016V70.016C253.088 70.016 251.755 69.6335 250.826 68.976L249.67 70.608ZM319.742 43.008L319.041 43.7209L319.046 43.7266L319.742 43.008ZM324.206 78V79H325.206V78H324.206ZM312.974 78H311.974V79H312.974V78ZM310.958 50.712L310.205 51.3705L310.21 51.3764L310.216 51.3823L310.958 50.712ZM298.358 51.072L299.075 51.7691L299.084 51.7592L298.358 51.072ZM295.838 78V79H296.838V78H295.838ZM284.606 78H283.606V79H284.606V78ZM284.606 39.264V38.264H283.606V39.264H284.606ZM295.334 39.264H296.334V38.264H295.334V39.264ZM295.334 43.8H294.334V46.381L296.073 44.4738L295.334 43.8ZM300.878 40.056L301.242 40.9872L301.251 40.9838L301.26 40.9803L300.878 40.056ZM308.15 39.688C312.735 39.688 316.331 41.0558 319.041 43.7209L320.443 42.2951C317.297 39.2002 313.165 37.688 308.15 37.688V39.688ZM319.046 43.7266C321.765 46.3572 323.206 50.3284 323.206 55.824H325.206C325.206 49.9916 323.671 45.4188 320.437 42.2894L319.046 43.7266ZM323.206 55.824V78H325.206V55.824H323.206ZM324.206 77H312.974V79H324.206V77ZM313.974 78V57.552H311.974V78H313.974ZM313.974 57.552C313.974 54.3596 313.279 51.79 311.7 50.0417L310.216 51.3823C311.325 52.61 311.974 54.6004 311.974 57.552H313.974ZM311.71 50.0535C310.131 48.2487 307.881 47.408 305.126 47.408V49.408C307.458 49.408 309.096 50.1033 310.205 51.3705L311.71 50.0535ZM305.126 47.408C302.067 47.408 299.531 48.377 297.631 50.3848L299.084 51.7592C300.545 50.215 302.521 49.408 305.126 49.408V47.408ZM297.641 50.3749C295.713 52.3574 294.838 55.2448 294.838 58.848H296.838C296.838 55.5392 297.642 53.2426 299.075 51.7691L297.641 50.3749ZM294.838 58.848V78H296.838V58.848H294.838ZM295.838 77H284.606V79H295.838V77ZM285.606 78V39.264H283.606V78H285.606ZM284.606 40.264H295.334V38.264H284.606V40.264ZM294.334 39.264V43.8H296.334V39.264H294.334ZM296.073 44.4738C297.45 42.9634 299.166 41.7995 301.242 40.9872L300.513 39.1248C298.173 40.0405 296.194 41.3726 294.595 43.1262L296.073 44.4738ZM301.26 40.9803C303.334 40.1233 305.627 39.688 308.15 39.688V37.688C305.393 37.688 302.837 38.1647 300.496 39.1317L301.26 40.9803ZM351.019 62.808L351.798 62.1806L351.104 61.3194L350.317 62.0962L351.019 62.808ZM345.619 68.136L344.917 67.4242L344.619 67.7178V68.136H345.619ZM345.619 78V79H346.619V78H345.619ZM334.387 78H333.387V79H334.387V78ZM334.387 24.576V23.576H333.387V24.576H334.387ZM345.619 24.576H346.619V23.576H345.619V24.576ZM345.619 54.816H344.619V57.1409L346.307 55.542L345.619 54.816ZM362.035 39.264V38.264H361.637L361.347 38.538L362.035 39.264ZM375.427 39.264L376.14 39.9648L377.811 38.264H375.427V39.264ZM359.299 55.68L358.586 54.9792L357.969 55.607L358.513 56.2985L359.299 55.68ZM376.867 78V79H378.927L377.653 77.3815L376.867 78ZM363.259 78L362.48 78.6274L362.781 79H363.259V78ZM350.317 62.0962L344.917 67.4242L346.321 68.8478L351.721 63.5198L350.317 62.0962ZM344.619 68.136V78H346.619V68.136H344.619ZM345.619 77H334.387V79H345.619V77ZM335.387 78V24.576H333.387V78H335.387ZM334.387 25.576H345.619V23.576H334.387V25.576ZM344.619 24.576V54.816H346.619V24.576H344.619ZM346.307 55.542L362.723 39.9899L361.347 38.538L344.931 54.09L346.307 55.542ZM362.035 40.264H375.427V38.264H362.035V40.264ZM374.714 38.5632L358.586 54.9792L360.012 56.3808L376.14 39.9648L374.714 38.5632ZM358.513 56.2985L376.081 78.6185L377.653 77.3815L360.085 55.0615L358.513 56.2985ZM376.867 77H363.259V79H376.867V77ZM364.038 77.3726L351.798 62.1806L350.24 63.4354L362.48 78.6274L364.038 77.3726Z"
    fill="black"
  />
<path
    d="M410.944 76.28L410.372 78.1963L410.386 78.2007L410.401 78.2049L410.944 76.28ZM402.016 72.032L400.193 71.21L399.541 72.6556L400.8 73.6198L402.016 72.032ZM405.976 63.248L407.159 61.6352L405.168 60.175L404.153 62.426L405.976 63.248ZM413.68 67.064L414.294 65.1606L414.294 65.1606L413.68 67.064ZM429.952 67.064L430.989 68.7744L431.007 68.7631L431.026 68.7513L429.952 67.064ZM430.888 60.152L429.554 61.6425L429.596 61.6793L429.639 61.7137L430.888 60.152ZM427.288 58.208L426.656 60.1054L426.665 60.1084L426.674 60.1114L427.288 58.208ZM421.384 56.624L420.922 58.5699L420.934 58.5728L421.384 56.624ZM411.952 53.888L412.65 52.0138L412.65 52.0138L411.952 53.888ZM405.616 49.496L404.097 50.7976L404.106 50.8079L404.115 50.8181L405.616 49.496ZM405.4 33.512L407.059 34.6292L407.064 34.6215L407.069 34.6137L405.4 33.512ZM412.528 27.824L411.734 25.9885L411.723 25.993L412.528 27.824ZM433.696 26.888L434.181 24.9477L434.181 24.9477L433.696 26.888ZM441.76 30.2L443.613 30.9532L444.246 29.3953L442.82 28.504L441.76 30.2ZM438.16 39.056L437.174 40.7958L439.155 41.9193L440.013 39.8092L438.16 39.056ZM416.92 36.68L415.811 35.0159L415.799 35.0238L415.787 35.0319L416.92 36.68ZM417.28 44.744L416.405 46.5425L416.434 46.5565L416.463 46.5696L417.28 44.744ZM425.56 47.192L426.022 45.2461L426.007 45.2425L425.991 45.239L425.56 47.192ZM434.992 49.928L435.69 48.0538L435.69 48.0538L434.992 49.928ZM441.256 54.248L439.753 55.5676L439.762 55.5778L439.771 55.5879L441.256 54.248ZM441.472 70.16L439.818 69.0354L439.813 69.0428L441.472 70.16ZM434.272 75.776L433.478 73.9406L433.478 73.9406L434.272 75.776ZM422.536 75.864C418.731 75.864 415.05 75.3601 411.487 74.3551L410.401 78.2049C414.326 79.3119 418.373 79.864 422.536 79.864V75.864ZM411.516 74.3637C407.975 73.3059 405.24 71.9821 403.232 70.4442L400.8 73.6198C403.304 75.5379 406.521 77.0461 410.372 78.1963L411.516 74.3637ZM403.839 72.854L407.799 64.07L404.153 62.426L400.193 71.21L403.839 72.854ZM404.793 64.8608C407.152 66.5907 409.919 67.9524 413.066 68.9674L414.294 65.1606C411.489 64.2556 409.12 63.0733 407.159 61.6352L404.793 64.8608ZM413.066 68.9674C416.23 69.9881 419.413 70.504 422.608 70.504V66.504C419.851 66.504 417.082 66.0599 414.294 65.1606L413.066 68.9674ZM422.608 70.504C426.037 70.504 428.932 70.0209 430.989 68.7744L428.915 65.3536C427.804 66.0271 425.803 66.504 422.608 66.504V70.504ZM431.026 68.7513C433.085 67.4411 434.328 65.5325 434.328 63.104H430.328C430.328 63.9395 429.987 64.6709 428.878 65.3767L431.026 68.7513ZM434.328 63.104C434.328 61.2793 433.558 59.727 432.137 58.5903L429.639 61.7137C430.138 62.113 430.328 62.5287 430.328 63.104H434.328ZM432.222 58.6615C431.052 57.615 429.585 56.8475 427.902 56.3046L426.674 60.1114C427.967 60.5285 428.9 61.057 429.554 61.6425L432.222 58.6615ZM427.92 56.3106C426.394 55.8017 424.356 55.2572 421.834 54.6752L420.934 58.5728C423.404 59.1428 425.302 59.6543 426.656 60.1054L427.92 56.3106ZM421.846 54.6781C418.05 53.7766 414.993 52.8866 412.65 52.0138L411.254 55.7622C413.807 56.7134 417.038 57.6474 420.922 58.5699L421.846 54.6781ZM412.65 52.0138C410.52 51.2203 408.681 49.9499 407.117 48.1739L404.115 50.8181C406.103 53.0741 408.488 54.7317 411.254 55.7622L412.65 52.0138ZM407.135 48.1944C405.793 46.6289 405.024 44.4449 405.024 41.432H401.024C401.024 45.1391 401.983 48.3311 404.097 50.7976L407.135 48.1944ZM405.024 41.432C405.024 38.8883 405.705 36.6398 407.059 34.6292L403.741 32.3948C401.927 35.0882 401.024 38.1197 401.024 41.432H405.024ZM407.069 34.6137C408.401 32.5951 410.445 30.924 413.333 29.655L411.723 25.993C408.275 27.508 405.567 29.6289 403.731 32.4103L407.069 34.6137ZM413.322 29.6594C416.222 28.4044 419.847 27.736 424.264 27.736V23.736C419.465 23.736 415.266 24.4596 411.734 25.9886L413.322 29.6594ZM424.264 27.736C427.319 27.736 430.3 28.1006 433.211 28.8283L434.181 24.9477C430.948 24.1394 427.641 23.736 424.264 23.736V27.736ZM433.211 28.8283C436.113 29.5537 438.6 30.5837 440.7 31.896L442.82 28.504C440.312 26.9363 437.423 25.7583 434.181 24.9477L433.211 28.8283ZM439.907 29.4468L436.307 38.3028L440.013 39.8092L443.613 30.9532L439.907 29.4468ZM439.146 37.3162C434.235 34.5315 429.243 33.096 424.192 33.096V37.096C428.453 37.096 432.773 38.3005 437.174 40.7958L439.146 37.3162ZM424.192 33.096C420.784 33.096 417.883 33.6342 415.811 35.0159L418.029 38.3441C419.125 37.6138 421.072 37.096 424.192 37.096V33.096ZM415.787 35.0319C413.759 36.4264 412.616 38.4105 412.616 40.856H416.616C416.616 39.8454 417.009 39.0456 418.053 38.3281L415.787 35.0319ZM412.616 40.856C412.616 42.0814 412.937 43.2405 413.632 44.2545C414.316 45.2532 415.284 45.9972 416.405 46.5425L418.155 42.9455C417.5 42.6268 417.136 42.2908 416.932 41.9935C416.739 41.7115 416.616 41.3586 416.616 40.856H412.616ZM416.463 46.5696C418.476 47.4702 421.396 48.3207 425.129 49.145L425.991 45.239C422.332 44.4313 419.732 43.6498 418.097 42.9184L416.463 46.5696ZM425.098 49.1379C428.894 50.0394 431.951 50.9294 434.294 51.8022L435.69 48.0538C433.137 47.1026 429.906 46.1686 426.022 45.2461L425.098 49.1379ZM434.294 51.8022C436.431 52.5984 438.243 53.8475 439.753 55.5676L442.759 52.9284C440.813 50.7125 438.449 49.0816 435.69 48.0538L434.294 51.8022ZM439.771 55.5879C441.134 57.098 441.92 59.2379 441.92 62.24H445.92C445.92 58.5221 444.93 55.334 442.741 52.9081L439.771 55.5879ZM441.92 62.24C441.92 64.7156 441.226 66.9643 439.818 69.0354L443.126 71.2846C444.982 68.5557 445.92 65.5244 445.92 62.24H441.92ZM439.813 69.0428C438.488 71.0103 436.426 72.6646 433.478 73.9406L435.066 77.6114C438.55 76.1034 441.288 74.0137 443.131 71.2772L439.813 69.0428ZM433.478 73.9406C430.578 75.1956 426.953 75.864 422.536 75.864V79.864C427.335 79.864 431.534 79.1404 435.066 77.6114L433.478 73.9406ZM513.323 38.264L515.203 38.9455L516.175 36.264H513.323V38.264ZM499.283 77V79H500.685L501.163 77.6815L499.283 77ZM488.483 77L486.603 77.6812L487.08 79H488.483V77ZM479.771 52.952L481.651 52.2708L479.801 47.1645L477.898 52.251L479.771 52.952ZM470.771 77V79H472.158L472.644 77.701L470.771 77ZM459.971 77L458.09 77.6784L458.566 79H459.971V77ZM446.003 38.264V36.264H443.156L444.122 38.9424L446.003 38.264ZM456.587 38.264L458.475 37.6051L458.007 36.264H456.587V38.264ZM465.731 64.472L463.843 65.1309L465.695 70.4389L467.611 65.1538L465.731 64.472ZM475.235 38.264V36.264H473.833L473.355 37.5822L475.235 38.264ZM484.739 38.264L486.626 37.6005L486.156 36.264H484.739V38.264ZM493.955 64.472L492.068 65.1355L493.933 70.4388L495.837 65.1493L493.955 64.472ZM503.387 38.264V36.264H501.981L501.505 37.5867L503.387 38.264ZM511.443 37.5825L497.403 76.3185L501.163 77.6815L515.203 38.9455L511.443 37.5825ZM499.283 75H488.483V79H499.283V75ZM490.363 76.3188L481.651 52.2708L477.891 53.6332L486.603 77.6812L490.363 76.3188ZM477.898 52.251L468.898 76.299L472.644 77.701L481.644 53.653L477.898 52.251ZM470.771 75H459.971V79H470.771V75ZM461.852 76.3216L447.884 37.5856L444.122 38.9424L458.09 77.6784L461.852 76.3216ZM446.003 40.264H456.587V36.264H446.003V40.264ZM454.699 38.9228L463.843 65.1309L467.619 63.8131L458.475 37.6051L454.699 38.9228ZM467.611 65.1538L477.115 38.9458L473.355 37.5822L463.851 63.7902L467.611 65.1538ZM475.235 40.264H484.739V36.264H475.235V40.264ZM482.852 38.9275L492.068 65.1355L495.842 63.8085L486.626 37.6005L482.852 38.9275ZM495.837 65.1493L505.269 38.9413L501.505 37.5867L492.073 63.7947L495.837 65.1493ZM503.387 40.264H513.323V36.264H503.387V40.264ZM547.447 42.008L546.113 43.4979L546.119 43.5035L546.125 43.509L547.447 42.008ZM552.271 77V79H554.271V77H552.271ZM541.759 77H539.759V79H541.759V77ZM541.759 72.176H543.759V64.8145L540.034 71.164L541.759 72.176ZM522.175 76.064L521.329 77.8764L521.337 77.8799L521.344 77.8834L522.175 76.064ZM517.207 71.888L518.885 70.7996L518.885 70.7996L517.207 71.888ZM519.511 57.344L518.307 55.7474L518.3 55.7525L518.293 55.7577L519.511 57.344ZM541.039 54.248V56.248H543.039V54.248H541.039ZM538.807 48.632L537.466 50.1162L537.48 50.1283L537.493 50.1402L538.807 48.632ZM525.991 47.624L526.595 49.5305L526.61 49.526L526.623 49.5214L525.991 47.624ZM520.951 50.216L519.172 51.13L520.285 53.2967L522.194 51.783L520.951 50.216ZM516.919 42.368L515.767 40.733L514.345 41.7348L515.14 43.282L516.919 42.368ZM524.479 38.912L523.95 36.9832L523.942 36.9854L524.479 38.912ZM537.871 68.72L538.875 70.4496L538.896 70.4376L538.916 70.4252L537.871 68.72ZM541.039 64.76L542.92 65.4393L543.039 65.11V64.76H541.039ZM541.039 60.8H543.039V58.8H541.039V60.8ZM528.079 68.792L526.846 70.367L526.884 70.3964L526.923 70.424L528.079 68.792ZM533.623 39.688C539.323 39.688 543.385 41.0553 546.113 43.4979L548.781 40.5181C545.077 37.2007 539.923 35.688 533.623 35.688V39.688ZM546.125 43.509C548.775 45.8427 550.271 49.5026 550.271 54.896H554.271C554.271 48.7694 552.551 43.8373 548.769 40.507L546.125 43.509ZM550.271 54.896V77H554.271V54.896H550.271ZM552.271 75H541.759V79H552.271V75ZM543.759 77V72.176H539.759V77H543.759ZM540.034 71.164C538.411 73.9298 535.304 75.576 529.951 75.576V79.576C536.118 79.576 540.883 77.6222 543.484 73.188L540.034 71.164ZM529.951 75.576C527.198 75.576 524.901 75.1098 523.006 74.2446L521.344 77.8834C523.865 79.0342 526.752 79.576 529.951 79.576V75.576ZM523.021 74.2516C521.157 73.3817 519.808 72.2227 518.885 70.7996L515.529 72.9764C516.91 75.1053 518.873 76.7303 521.329 77.8764L523.021 74.2516ZM518.885 70.7996C517.957 69.3693 517.479 67.7363 517.479 65.84H513.479C513.479 68.4557 514.153 70.8547 515.529 72.9764L518.885 70.7996ZM517.479 65.84C517.479 62.8166 518.569 60.5892 520.729 58.9303L518.293 55.7577C515.077 58.2268 513.479 61.6634 513.479 65.84H517.479ZM520.715 58.9406C522.943 57.2604 526.622 56.248 532.111 56.248V52.248C526.272 52.248 521.551 53.2996 518.307 55.7474L520.715 58.9406ZM532.111 56.248H541.039V52.248H532.111V56.248ZM543.039 54.248C543.039 51.3724 542.147 48.8886 540.121 47.1238L537.493 50.1402C538.443 50.9674 539.039 52.2276 539.039 54.248H543.039ZM540.148 47.1478C538.149 45.3425 535.348 44.616 532.111 44.616V48.616C534.826 48.616 536.489 49.2335 537.466 50.1162L540.148 47.1478ZM532.111 44.616C529.826 44.616 527.572 44.9887 525.359 45.7266L526.623 49.5214C528.442 48.9153 530.268 48.616 532.111 48.616V44.616ZM525.387 45.7175C523.224 46.4033 521.319 47.3717 519.708 48.649L522.194 51.783C523.367 50.8523 524.822 50.0927 526.595 49.5305L525.387 45.7175ZM522.73 49.302L518.698 41.454L515.14 43.282L519.172 51.13L522.73 49.302ZM518.071 44.003C519.966 42.6675 522.27 41.6038 525.016 40.8386L523.942 36.9854C520.832 37.8522 518.096 39.0925 515.767 40.733L518.071 44.003ZM525.008 40.8408C527.81 40.0726 530.68 39.688 533.623 39.688V35.688C530.326 35.688 527.1 36.1194 523.95 36.9832L525.008 40.8408ZM532.759 72.016C534.99 72.016 537.048 71.5106 538.875 70.4496L536.867 66.9904C535.718 67.6574 534.368 68.016 532.759 68.016V72.016ZM538.916 70.4252C540.813 69.2629 542.151 67.57 542.92 65.4393L539.158 64.0807C538.679 65.406 537.905 66.3531 536.826 67.0148L538.916 70.4252ZM543.039 64.76V60.8H539.039V64.76H543.039ZM541.039 58.8H533.335V62.8H541.039V58.8ZM533.335 58.8C530.876 58.8 528.684 59.1919 527.054 60.2619C525.276 61.4283 524.423 63.2278 524.423 65.336H528.423C528.423 64.4202 528.722 63.9517 529.248 63.6061C529.922 63.1641 531.186 62.8 533.335 62.8V58.8ZM524.423 65.336C524.423 67.3716 525.243 69.1121 526.846 70.367L529.312 67.217C528.707 66.7439 528.423 66.1804 528.423 65.336H524.423ZM526.923 70.424C528.523 71.5571 530.535 72.016 532.759 72.016V68.016C531.047 68.016 529.939 67.6589 529.235 67.16L526.923 70.424ZM595.845 40.208L594.849 41.9427L594.866 41.9523L594.883 41.9616L595.845 40.208ZM602.829 47.192L601.08 48.1633L601.087 48.1752L602.829 47.192ZM602.829 68.144L604.57 69.1272L604.577 69.1153L602.829 68.144ZM595.845 75.128L596.818 76.875L596.828 76.8696L595.845 75.128ZM574.389 72.896L575.869 71.5518L572.389 67.7169V72.896H574.389ZM574.389 90.968V92.968H576.389V90.968H574.389ZM563.157 90.968H561.157V92.968H563.157V90.968ZM563.157 38.264V36.264H561.157V38.264H563.157ZM573.885 38.264H575.885V36.264H573.885V38.264ZM573.885 42.728H571.885V48.2765L575.425 44.004L573.885 42.728ZM591.165 65.48L589.715 64.1016L589.715 64.1025L591.165 65.48ZM591.165 49.856L589.698 51.2155L589.715 51.2341L589.733 51.2522L591.165 49.856ZM576.981 49.856L575.531 48.4776L575.531 48.4785L576.981 49.856ZM576.981 65.48L575.514 66.8395L575.531 66.8581L575.549 66.8762L576.981 65.48ZM586.053 39.688C589.327 39.688 592.244 40.4481 594.849 41.9427L596.84 38.4733C593.589 36.6079 589.978 35.688 586.053 35.688V39.688ZM594.883 41.9616C597.521 43.4086 599.58 45.4623 601.08 48.1633L604.577 46.2207C602.717 42.8737 600.12 40.2714 596.806 38.4544L594.883 41.9616ZM601.087 48.1752C602.571 50.8047 603.349 53.9349 603.349 57.632H607.349C607.349 53.3611 606.446 49.5313 604.57 46.2088L601.087 48.1752ZM603.349 57.632C603.349 61.3282 602.572 64.4883 601.08 67.1727L604.577 69.1153C606.445 65.7517 607.349 61.9038 607.349 57.632H603.349ZM601.087 67.1608C599.586 69.8196 597.52 71.8854 594.861 73.3864L596.828 76.8696C600.121 75.0106 602.711 72.4204 604.57 69.1272L601.087 67.1608ZM594.871 73.381C592.262 74.8349 589.338 75.576 586.053 75.576V79.576C589.967 79.576 593.571 78.6851 596.818 76.875L594.871 73.381ZM586.053 75.576C581.565 75.576 578.256 74.181 575.869 71.5518L572.908 74.2402C576.185 77.851 580.652 79.576 586.053 79.576V75.576ZM572.389 72.896V90.968H576.389V72.896H572.389ZM574.389 88.968H563.157V92.968H574.389V88.968ZM565.157 90.968V38.264H561.157V90.968H565.157ZM563.157 40.264H573.885V36.264H563.157V40.264ZM571.885 38.264V42.728H575.885V38.264H571.885ZM575.425 44.004C577.745 41.2034 581.175 39.688 586.053 39.688V35.688C580.274 35.688 575.592 37.5326 572.344 41.452L575.425 44.004ZM584.109 70.36C587.483 70.36 590.378 69.212 592.615 66.8575L589.715 64.1025C588.303 65.588 586.494 66.36 584.109 66.36V70.36ZM592.614 66.8584C594.908 64.446 595.973 61.2992 595.973 57.632H591.973C591.973 60.4928 591.165 62.578 589.715 64.1016L592.614 66.8584ZM595.973 57.632C595.973 53.9666 594.909 50.8314 592.597 48.4598L589.733 51.2522C591.164 52.7206 591.973 54.7694 591.973 57.632H595.973ZM592.631 48.4965C590.399 46.0877 587.5 44.904 584.109 44.904V48.904C586.477 48.904 588.282 49.6883 589.698 51.2155L592.631 48.4965ZM584.109 44.904C580.718 44.904 577.806 46.0867 575.531 48.4776L578.43 51.2344C579.899 49.6893 581.739 48.904 584.109 48.904V44.904ZM575.531 48.4785C573.276 50.8522 572.245 53.9808 572.245 57.632H576.245C576.245 54.7552 577.038 52.6998 578.431 51.2335L575.531 48.4785ZM572.245 57.632C572.245 61.2852 573.276 64.4253 575.514 66.8395L578.447 64.1205C577.037 62.5987 576.245 60.5068 576.245 57.632H572.245ZM575.549 66.8762C577.827 69.2129 580.734 70.36 584.109 70.36V66.36C581.723 66.36 579.878 65.5871 578.413 64.0838L575.549 66.8762Z"
    fill="url(#paint1_linear_41_318)"
  />
<path
    d="M275.66 133.46C276.548 133.46 277.352 133.664 278.072 134.072C278.792 134.468 279.356 135.032 279.764 135.764C280.172 136.496 280.376 137.33 280.376 138.266C280.376 139.202 280.172 140.036 279.764 140.768C279.356 141.5 278.792 142.07 278.072 142.478C277.352 142.886 276.548 143.09 275.66 143.09C274.868 143.09 274.154 142.922 273.518 142.586C272.894 142.25 272.39 141.764 272.006 141.128V143H270.782V129.644H272.06V135.332C272.456 134.72 272.96 134.258 273.572 133.946C274.196 133.622 274.892 133.46 275.66 133.46ZM275.57 141.956C276.23 141.956 276.83 141.806 277.37 141.506C277.91 141.194 278.33 140.756 278.63 140.192C278.942 139.628 279.098 138.986 279.098 138.266C279.098 137.546 278.942 136.904 278.63 136.34C278.33 135.776 277.91 135.344 277.37 135.044C276.83 134.732 276.23 134.576 275.57 134.576C274.898 134.576 274.292 134.732 273.752 135.044C273.224 135.344 272.804 135.776 272.492 136.34C272.192 136.904 272.042 137.546 272.042 138.266C272.042 138.986 272.192 139.628 272.492 140.192C272.804 140.756 273.224 141.194 273.752 141.506C274.292 141.806 274.898 141.956 275.57 141.956ZM290.674 133.532L285.94 144.134C285.556 145.022 285.112 145.652 284.608 146.024C284.104 146.396 283.498 146.582 282.79 146.582C282.334 146.582 281.908 146.51 281.512 146.366C281.116 146.222 280.774 146.006 280.486 145.718L281.08 144.764C281.56 145.244 282.136 145.484 282.808 145.484C283.24 145.484 283.606 145.364 283.906 145.124C284.218 144.884 284.506 144.476 284.77 143.9L285.184 142.982L280.954 133.532H282.286L285.85 141.578L289.414 133.532H290.674Z"
    fill="white"
  />
<path
    d="M322.016 135.004H327.344V145.228C325.976 146.26 324.392 147.052 322.592 147.604C320.792 148.156 318.98 148.432 317.156 148.432C314.54 148.432 312.188 147.88 310.1 146.776C308.012 145.648 306.368 144.1 305.168 142.132C303.992 140.14 303.404 137.896 303.404 135.4C303.404 132.904 303.992 130.672 305.168 128.704C306.368 126.712 308.024 125.164 310.136 124.06C312.248 122.932 314.624 122.368 317.264 122.368C319.472 122.368 321.476 122.74 323.276 123.484C325.076 124.228 326.588 125.308 327.812 126.724L324.068 130.18C322.268 128.284 320.096 127.336 317.552 127.336C315.944 127.336 314.516 127.672 313.268 128.344C312.02 129.016 311.048 129.964 310.352 131.188C309.656 132.412 309.308 133.816 309.308 135.4C309.308 136.96 309.656 138.352 310.352 139.576C311.048 140.8 312.008 141.76 313.232 142.456C314.48 143.128 315.896 143.464 317.48 143.464C319.16 143.464 320.672 143.104 322.016 142.384V135.004ZM337.729 131.188C338.401 130.252 339.301 129.544 340.429 129.064C341.581 128.584 342.901 128.344 344.389 128.344V133.528C343.765 133.48 343.345 133.456 343.129 133.456C341.521 133.456 340.261 133.912 339.349 134.824C338.437 135.712 337.981 137.056 337.981 138.856V148H332.365V128.632H337.729V131.188ZM367.381 128.632V148H362.053V145.696C361.309 146.536 360.421 147.184 359.389 147.64C358.357 148.072 357.241 148.288 356.041 148.288C353.497 148.288 351.481 147.556 349.993 146.092C348.505 144.628 347.761 142.456 347.761 139.576V128.632H353.377V138.748C353.377 141.868 354.685 143.428 357.301 143.428C358.645 143.428 359.725 142.996 360.541 142.132C361.357 141.244 361.765 139.936 361.765 138.208V128.632H367.381ZM384.032 128.344C385.832 128.344 387.464 128.764 388.928 129.604C390.416 130.42 391.58 131.584 392.42 133.096C393.26 134.584 393.68 136.324 393.68 138.316C393.68 140.308 393.26 142.06 392.42 143.572C391.58 145.06 390.416 146.224 388.928 147.064C387.464 147.88 385.832 148.288 384.032 148.288C381.56 148.288 379.616 147.508 378.2 145.948V154.984H372.584V128.632H377.948V130.864C379.34 129.184 381.368 128.344 384.032 128.344ZM383.06 143.68C384.5 143.68 385.676 143.2 386.588 142.24C387.524 141.256 387.992 139.948 387.992 138.316C387.992 136.684 387.524 135.388 386.588 134.428C385.676 133.444 384.5 132.952 383.06 132.952C381.62 132.952 380.432 133.444 379.496 134.428C378.584 135.388 378.128 136.684 378.128 138.316C378.128 139.948 378.584 141.256 379.496 142.24C380.432 143.2 381.62 143.68 383.06 143.68ZM406.656 148.288C404.616 148.288 402.78 147.868 401.148 147.028C399.54 146.164 398.28 144.976 397.368 143.464C396.456 141.952 396 140.236 396 138.316C396 136.396 396.456 134.68 397.368 133.168C398.28 131.656 399.54 130.48 401.148 129.64C402.78 128.776 404.616 128.344 406.656 128.344C408.696 128.344 410.52 128.776 412.128 129.64C413.736 130.48 414.996 131.656 415.908 133.168C416.82 134.68 417.276 136.396 417.276 138.316C417.276 140.236 416.82 141.952 415.908 143.464C414.996 144.976 413.736 146.164 412.128 147.028C410.52 147.868 408.696 148.288 406.656 148.288ZM406.656 143.68C408.096 143.68 409.272 143.2 410.184 142.24C411.12 141.256 411.588 139.948 411.588 138.316C411.588 136.684 411.12 135.388 410.184 134.428C409.272 133.444 408.096 132.952 406.656 132.952C405.216 132.952 404.028 133.444 403.092 134.428C402.156 135.388 401.688 136.684 401.688 138.316C401.688 139.948 402.156 141.256 403.092 142.24C404.028 143.2 405.216 143.68 406.656 143.68ZM432.334 122.8C434.566 122.8 436.498 123.172 438.13 123.916C439.786 124.66 441.058 125.716 441.946 127.084C442.834 128.452 443.278 130.072 443.278 131.944C443.278 133.792 442.834 135.412 441.946 136.804C441.058 138.172 439.786 139.228 438.13 139.972C436.498 140.692 434.566 141.052 432.334 141.052H427.258V148H421.426V122.8H432.334ZM432.01 136.3C433.762 136.3 435.094 135.928 436.006 135.184C436.918 134.416 437.374 133.336 437.374 131.944C437.374 130.528 436.918 129.448 436.006 128.704C435.094 127.936 433.762 127.552 432.01 127.552H427.258V136.3H432.01ZM452.409 131.188C453.081 130.252 453.981 129.544 455.109 129.064C456.261 128.584 457.581 128.344 459.069 128.344V133.528C458.445 133.48 458.025 133.456 457.809 133.456C456.201 133.456 454.941 133.912 454.029 134.824C453.117 135.712 452.661 137.056 452.661 138.856V148H447.045V128.632H452.409V131.188ZM462.408 128.632H468.024V148H462.408V128.632ZM465.216 125.932C464.184 125.932 463.344 125.632 462.696 125.032C462.048 124.432 461.724 123.688 461.724 122.8C461.724 121.912 462.048 121.168 462.696 120.568C463.344 119.968 464.184 119.668 465.216 119.668C466.248 119.668 467.088 119.956 467.736 120.532C468.384 121.108 468.708 121.828 468.708 122.692C468.708 123.628 468.384 124.408 467.736 125.032C467.088 125.632 466.248 125.932 465.216 125.932ZM498.041 128.344C500.465 128.344 502.385 129.064 503.801 130.504C505.241 131.92 505.961 134.056 505.961 136.912V148H500.345V137.776C500.345 136.24 500.021 135.1 499.373 134.356C498.749 133.588 497.849 133.204 496.673 133.204C495.353 133.204 494.309 133.636 493.541 134.5C492.773 135.34 492.389 136.6 492.389 138.28V148H486.773V137.776C486.773 134.728 485.549 133.204 483.101 133.204C481.805 133.204 480.773 133.636 480.005 134.5C479.237 135.34 478.853 136.6 478.853 138.28V148H473.237V128.632H478.601V130.864C479.321 130.048 480.197 129.424 481.229 128.992C482.285 128.56 483.437 128.344 484.685 128.344C486.053 128.344 487.289 128.62 488.393 129.172C489.497 129.7 490.385 130.48 491.057 131.512C491.849 130.504 492.845 129.724 494.045 129.172C495.269 128.62 496.601 128.344 498.041 128.344ZM520.421 148.288C518.381 148.288 516.545 147.868 514.913 147.028C513.305 146.164 512.045 144.976 511.133 143.464C510.221 141.952 509.765 140.236 509.765 138.316C509.765 136.396 510.221 134.68 511.133 133.168C512.045 131.656 513.305 130.48 514.913 129.64C516.545 128.776 518.381 128.344 520.421 128.344C522.461 128.344 524.285 128.776 525.893 129.64C527.501 130.48 528.761 131.656 529.673 133.168C530.585 134.68 531.041 136.396 531.041 138.316C531.041 140.236 530.585 141.952 529.673 143.464C528.761 144.976 527.501 146.164 525.893 147.028C524.285 147.868 522.461 148.288 520.421 148.288ZM520.421 143.68C521.861 143.68 523.037 143.2 523.949 142.24C524.885 141.256 525.353 139.948 525.353 138.316C525.353 136.684 524.885 135.388 523.949 134.428C523.037 133.444 521.861 132.952 520.421 132.952C518.981 132.952 517.793 133.444 516.857 134.428C515.921 135.388 515.453 136.684 515.453 138.316C515.453 139.948 515.921 141.256 516.857 142.24C517.793 143.2 518.981 143.68 520.421 143.68ZM541.311 148.288C539.703 148.288 538.131 148.096 536.595 147.712C535.059 147.304 533.835 146.8 532.923 146.2L534.795 142.168C535.659 142.72 536.703 143.176 537.927 143.536C539.151 143.872 540.351 144.04 541.527 144.04C543.903 144.04 545.091 143.452 545.091 142.276C545.091 141.724 544.767 141.328 544.119 141.088C543.471 140.848 542.475 140.644 541.131 140.476C539.547 140.236 538.239 139.96 537.207 139.648C536.175 139.336 535.275 138.784 534.507 137.992C533.763 137.2 533.391 136.072 533.391 134.608C533.391 133.384 533.739 132.304 534.435 131.368C535.155 130.408 536.187 129.664 537.531 129.136C538.899 128.608 540.507 128.344 542.355 128.344C543.723 128.344 545.079 128.5 546.423 128.812C547.791 129.1 548.919 129.508 549.807 130.036L547.935 134.032C546.231 133.072 544.371 132.592 542.355 132.592C541.155 132.592 540.255 132.76 539.655 133.096C539.055 133.432 538.755 133.864 538.755 134.392C538.755 134.992 539.079 135.412 539.727 135.652C540.375 135.892 541.407 136.12 542.823 136.336C544.407 136.6 545.703 136.888 546.711 137.2C547.719 137.488 548.595 138.028 549.339 138.82C550.083 139.612 550.455 140.716 550.455 142.132C550.455 143.332 550.095 144.4 549.375 145.336C548.655 146.272 547.599 147.004 546.207 147.532C544.839 148.036 543.207 148.288 541.311 148.288Z"
    fill="white"
  />
<defs>
<linearGradient
      id="paint0_linear_41_318"
      x1="0"
      y1="8"
      x2="377"
      y2="8"
      gradientUnits="userSpaceOnUse"
    >
<stop stop-color="#DCB315" stop-opacity="0.92" />
<stop offset="0.0001" stop-color="#DCB315" />
<stop offset="0.0002" stop-color="#932AFE" />
<stop offset="0.0003" stop-color="#ECAF3A" />
</linearGradient>
<linearGradient
      id="paint1_linear_41_318"
      x1="400"
      y1="0"
      x2="608"
      y2="0"
      gradientUnits="userSpaceOnUse"
    >
<stop stop-color="#E78818" />
<stop offset="1" stop-color="#FDFDFD" />
</linearGradient>
</defs>
</svg>
